<svg xmlns="http://www.w3.org/2000/svg" width="920" height="600" viewBox="0 0 920 600" role="img" aria-label="GitHub Activity Radar">
  <rect x="0" y="0" width="920" height="600" fill="#f8fafc" />
  <text x="40" y="58" font-family="Segoe UI, Helvetica, Arial, sans-serif" font-size="30" font-weight="700" fill="#0f172a">GitHub Activity Radar (Last 365 Days)</text>
  <text x="40" y="90" font-family="Segoe UI, Helvetica, Arial, sans-serif" font-size="16" fill="#475569">Normalized against profile-scale targets to show overall engineering activity balance.</text>

  <polygon points="285.0,264.0 319.2,288.9 306.2,329.1 263.8,329.1 250.8,288.9" fill="none" stroke="#e4e8f0" stroke-width="1" /><polygon points="285.0,228.0 353.5,277.8 327.3,358.2 242.7,358.2 216.5,277.8" fill="none" stroke="#e4e8f0" stroke-width="1" /><polygon points="285.0,192.0 387.7,266.6 348.5,387.4 221.5,387.4 182.3,266.6" fill="none" stroke="#e4e8f0" stroke-width="1" /><polygon points="285.0,156.0 422.0,255.5 369.6,416.5 200.4,416.5 148.0,255.5" fill="none" stroke="#e4e8f0" stroke-width="1" /><polygon points="285.0,120.0 456.2,244.4 390.8,445.6 179.2,445.6 113.8,244.4" fill="none" stroke="#e4e8f0" stroke-width="1" />
  <line x1="285" y1="300" x2="285.0" y2="120.0" stroke="#d5d9e0" stroke-width="1" /><line x1="285" y1="300" x2="456.2" y2="244.4" stroke="#d5d9e0" stroke-width="1" /><line x1="285" y1="300" x2="390.8" y2="445.6" stroke="#d5d9e0" stroke-width="1" /><line x1="285" y1="300" x2="179.2" y2="445.6" stroke="#d5d9e0" stroke-width="1" /><line x1="285" y1="300" x2="113.8" y2="244.4" stroke="#d5d9e0" stroke-width="1" />

  <polygon points="285.0,153.7 344.9,280.5 387.7,441.4 248.0,351.0 222.2,279.6" fill="#2563eb33" stroke="#1d4ed8" stroke-width="3" />
  <text x="285.0" y="82.0" font-size="14" fill="#3a404a" text-anchor="middle">Commits</text><text x="492.3" y="232.6" font-size="14" fill="#3a404a" text-anchor="middle">PRs</text><text x="413.1" y="476.4" font-size="14" fill="#3a404a" text-anchor="middle">Merge Rate</text><text x="156.9" y="476.4" font-size="14" fill="#3a404a" text-anchor="middle">Active Repos</text><text x="77.7" y="232.6" font-size="14" fill="#3a404a" text-anchor="middle">Active Days</text>

  <rect x="530" y="130" width="340" height="240" rx="14" fill="#ffffff" stroke="#d7dce5" />
  <text x="560" y="152" font-family="Segoe UI, Helvetica, Arial, sans-serif" font-size="18" font-weight="700" fill="#0f172a">Current Values</text>
  <text x="560" y="172" font-size="16" fill="#141a24">Commits: 813</text><text x="560" y="210" font-size="16" fill="#141a24">PRs: 35</text><text x="560" y="248" font-size="16" fill="#141a24">Merge Rate: 97%</text><text x="560" y="286" font-size="16" fill="#141a24">Active Repos: 7</text><text x="560" y="324" font-size="16" fill="#141a24">Active Days: 134</text>

  <text x="40" y="560" font-family="Segoe UI, Helvetica, Arial, sans-serif" font-size="13" fill="#64748b">Automated refresh via GitHub Actions.</text>
</svg>